# xmcd CD database file
#
# Track frame offsets:
#	150
#	21969
#	41824
#	65899
#	83050
#	105658
#	141763
#	154151
#	173027
#	189942
#
# Disc length: 2920 seconds
#
# Revision: 2
# Processed by: cddbd v1.5.2PL0 Copyright (c) Steve Scherf et al.
# Submitted via: CDex 1.70beta3
#
DISCID=830b660a
DTITLE=山中　千尋 - Reminiscence
DYEAR=2011
DGENRE=Jazz
TTITLE0=Rain, Rain And Rain
TTITLE1=Soul Searchin'
TTITLE2=(They Long To Be) Close To You
TTITLE3=Dead Meat
TTITLE4=Ele E Ela
TTITLE5=This Masquerade
TTITLE6=She Did It Again
TTITLE7=You've Got A Friend/Central Park West
TTITLE8=La Samba Des Prophetes
TTITLE9=Can't Take My Eyes Off Of You
EXTD=YEAR: 2011
EXTT0=
EXTT1=
EXTT2=
EXTT3=
EXTT4=
EXTT5=
EXTT6=
EXTT7=
EXTT8=
EXTT9=
PLAYORDER=
